<svg xmlns="http://www.w3.org/2000/svg" width="1435" height="513" fill="none" viewBox="0 0 1435 513"><path fill="#fff" d="M171.75 512.5C136.75 512.5 106.25 505.5 80.25 491.5C54.75 477 35 457.25 21 432.25C7.5 407.25 0.750001 379 0.750001 347.5C0.750001 317 8.25 289.25 23.25 264.25C38.75 238.75 59.5 218.75 85.5 204.25C112 189.25 141.25 181.75 173.25 181.75C214.25 181.75 248.25 193.75 275.25 217.75C302.25 241.75 320.75 274.75 330.75 316.75L84.75 403C93.25 418.5 105.25 430.75 120.75 439.75C136.25 448.25 153.75 452.5 173.25 452.5C187.25 452.5 200.5 450 213 445C225.5 440 237.5 433.5 249 425.5L281.25 477.25C265.25 487.75 247.5 496.25 228 502.75C209 509.25 190.25 512.5 171.75 512.5ZM69.75 343.75C69.25 349.75 69.5 355.5 70.5 361L251.25 294.25C244.25 279.25 234 266 220.5 254.5C207.5 243 190 237.25 168 237.25C139.5 237.25 116 247.25 97.5 267.25C79 287.25 69.75 312.75 69.75 343.75ZM683.842 505H599.092L515.092 394.75L437.842 505H366.592L480.592 349L362.842 194.5H449.842L530.842 302.5L601.342 194.5H671.842L563.092 345.25L683.842 505ZM737.707 11.5H867.457V505H793.957V81.25H737.707V11.5Z"/><path fill="#fff" d="M1360.02 74.98C1311.67 26.628 1247.38 0 1179 0C1110.62 0 1046.33 26.628 997.981 74.98C949.628 123.333 923 187.62 923 256C923 324.38 949.628 388.667 997.981 437.02C1046.33 485.372 1110.62 512 1179 512C1247.38 512 1311.67 485.372 1360.02 437.02C1408.37 388.668 1435 324.38 1435 256C1435 187.62 1408.37 123.333 1360.02 74.98ZM1361.42 122.553C1308.25 128.737 1262.44 146.824 1225.05 176.44C1193.95 201.077 1177.09 227.099 1169.34 241.604C1153.64 241.981 1118.94 239.925 1079.43 219.477C1081.99 201.531 1092.14 164.679 1131.96 131.896C1173.98 97.294 1234.57 78.397 1312.04 75.728L1313.87 75.661C1314.36 75.642 1314.63 75.633 1315.16 75.62C1323.39 81.845 1331.3 88.692 1338.8 96.194C1347.13 104.518 1354.66 113.336 1361.42 122.553ZM1268 462.49L1267.24 463.912C1267.21 463.975 1267.18 464.03 1267.15 464.088C1246.67 472.73 1225.18 478.222 1203.41 480.567C1253.69 363.988 1211.8 279.816 1196.29 254.834C1202.24 243.947 1216.73 221.3 1243.67 199.956C1249.04 195.704 1254.62 191.728 1260.4 188.016C1311.09 227.437 1343.03 322.352 1268 462.49ZM972.252 164.731C1044.19 261.388 1132.39 271.64 1166.29 271.639C1168.16 271.639 1169.85 271.607 1171.38 271.558C1179.45 284.728 1195.19 315.807 1197.24 360.464C1180.34 367.264 1143.24 376.931 1094.78 358.694C1043.55 339.416 996.698 295.981 955.533 229.597C955.093 228.887 954.898 228.579 954.787 228.405C957.446 206.614 963.271 185.141 972.252 164.731ZM1019.19 96.193C1063.25 52.135 1121.13 30.105 1179 30.105C1209.82 30.105 1240.64 36.354 1269.37 48.847C1204.57 56.424 1152.05 76.49 1112.89 108.736C1081.73 134.387 1060.24 167.843 1052.08 202.621C1030.48 187.025 1008.43 165.317 988.02 135.136C996.77 121.313 1007.15 108.234 1019.19 96.193ZM954.543 281.432C971.011 303.478 988.41 322.662 1006.55 338.698C1031.17 360.473 1057.31 376.649 1084.22 386.774C1106.16 395.032 1128.75 399.157 1150.54 399.157C1166.41 399.157 1181.85 396.956 1196.32 392.58C1193.6 419.037 1185.81 448.954 1169.9 481.699C1115.1 479.51 1060.94 457.555 1019.19 415.807C981.6 378.213 960.059 330.56 954.543 281.432ZM1338.81 415.807C1330.72 423.898 1322.15 431.24 1313.22 437.844C1338.58 379.032 1347.6 324.415 1340.02 275.045C1333.75 234.228 1315.29 197.768 1288.63 172.728C1315.45 160.666 1345.73 153.4 1379.16 151.023C1423.81 236.273 1410.36 344.256 1338.81 415.807Z"/></svg>